<svg xmlns="http://www.w3.org/2000/svg" width="778" height="778" viewBox="0 0 778 778">
  <defs>
    <style>
      .cls-1 {
        fill: #0fafc7;
        fill-rule: evenodd;
      }
    </style>
  </defs>
  <path class="cls-1" d="M51,272.262c-4.025,0-21-5.782-21-27.262s16.665-29.484,21-29.484S437.272,216,440,216s22,2.738,22,29-16.082,27.262-21.935,27.262H51Zm0,290c-4.025,0-21-5.782-21-27.262s16.665-29.484,21-29.484S437.272,506,440,506s22,2.738,22,29-16.082,27.262-21.935,27.262H51ZM246,300,50,417.262c-4.025,0-21-5.782-21-27.262s16.665-29.484,21-29.484c8.143,0,237.272.484,240,.484s26,1.738,26,28-20.147,28-26,28S58.515,417.262,50,417.262ZM54,125c-0.235.095-24-3.837-24-25,0-22.967,13.229-31,24-31H469c144.369,0,281,161.939,281,319,0,160.371-144.12,321-286,321H54s-25-2.212-25-30c0-24.212,25-27,25-27H460c85.516,0,230-104.966,230-264,0-158.151-131.355-263-230.708-263H54Z"/>
</svg>
